Coordinates
version=1
nRows=6
nColumns=36
inDegrees=yes

Units are S.I. units (second, meters, Newtons, ...)
If the header above contains a line with 'inDegrees', this indicates whether rotational values are in degrees (yes) or radians (no).

endheader
time	pelvis_tilt	pelvis_list	pelvis_rotation	pelvis_tx	pelvis_ty	pelvis_tz	hip_flexion_r	hip_adduction_r	hip_rotation_r	knee_angle_r	knee_angle_r_beta	ankle_angle_r	subtalar_angle_r	mtp_angle_r	hip_flexion_l	hip_adduction_l	hip_rotation_l	knee_angle_l	knee_angle_l_beta	ankle_angle_l	subtalar_angle_l	mtp_angle_l	lumbar_extension	lumbar_bending	lumbar_rotation	arm_flex_r	arm_add_r	arm_rot_r	elbow_flex_r	pro_sup_r	arm_flex_l	arm_add_l	arm_rot_l	elbow_flex_l	pro_sup_l
     29.53333330	      2.23071603	      4.80155183	    174.88332663	      0.34972595	      0.94369420	      0.70477152	      6.01292289	      7.38724379	      0.37632643	     22.65184859	      0.39534934	      7.37242466	    -16.93030441	     -7.49999987	     27.39159788	     -8.72495316	     -7.13295366	     29.10812642	      0.50803265	    -13.09757757	    -23.72497107	     -7.49999987	    -10.74076744	      4.20245209	      8.68948461	      9.34951076	    -16.23696800	     -9.12192786	     56.54907359	     81.56699628	      4.53297014	     -4.89706158	     -2.19799781	     14.41202576	     87.04618535
     29.55000000	      2.81403756	      4.97888666	    174.68612277	      0.35166177	      0.93894896	      0.70579415	      5.91811864	      7.67722700	      1.62986296	     22.91594179	      0.39995864	      9.87440128	    -15.48923168	     -7.49999987	     28.52862517	     -9.29194278	     -6.62277545	     28.19916255	      0.49216823	    -12.02253425	    -23.37419423	     -7.49999987	    -10.24462481	      4.56456992	      8.75229748	      9.40039401	    -16.40326146	     -9.07334582	     57.80841438	     81.59596515	      4.41748635	     -4.44729782	     -2.40961700	     14.65063444	     86.93876547
     29.56666670	      3.40506816	      5.08057685	    174.51733348	      0.35493070	      0.93441271	      0.70838668	      6.06631194	      7.69652700	      2.27684829	     23.58304360	      0.41160176	     12.02695664	    -14.12358006	     -7.49999987	     29.98785640	     -9.77959419	     -5.83668577	     27.59330825	      0.48159408	    -10.46363335	    -22.85835334	     -7.49999987	     -9.86469950	      4.78087755	      8.89101229	      9.36124525	    -16.64497976	     -8.92806689	     58.98045368	     81.72363229	      4.52152540	     -4.00098477	     -2.44157254	     14.97453130	     86.93538227
     29.58333330	      3.65887783	      5.10755458	    174.17995271	      0.35651336	      0.93141911	      0.71122332	      5.84971272	      7.56089668	      2.93343578	     24.31096131	      0.42430632	     13.49404420	    -14.07557216	     -7.49999987	     31.01914834	    -10.16308346	     -5.02338687	     27.13675747	      0.47362577	     -9.15385251	    -22.93050534	     -7.49999987	    -10.00068613	      4.83496968	      9.03047414	      9.72123311	    -16.59399575	     -8.76986419	     59.40118339	     81.75598303	      4.79850819	     -3.59163119	     -2.38102524	     15.24448927	     86.91915092
     29.60000000	      4.24067931	      5.02643670	    173.42825076	      0.35548592	      0.92820463	      0.71335788	      6.01814082	      7.15234163	      3.05744510	     25.52248107	      0.44545133	     15.76404167	    -12.43345155	     -7.49999987	     31.90424959	    -10.53801994	     -4.73122241	     26.94037581	      0.47019826	     -8.13262909	    -21.81510464	     -7.49999987	     -9.42199822	      4.76568473	      9.48097741	      9.63858966	    -16.72858902	     -8.02093642	     59.71283235	     82.15179831	      4.93490500	     -3.25583744	     -2.31104961	     15.53981698	     87.00634829
     29.61666670	      4.45196928	      4.76798731	    172.65353471	      0.35566616	      0.92567037	      0.71565909	      5.93148484	      6.47854131	      3.28820071	     27.17960683	      0.47437363	     17.40159203	    -11.87568213	     -7.49999987	     32.21940792	    -10.52790820	     -4.36918879	     27.11239523	      0.47320056	     -7.98217799	    -21.39612839	     -7.49999987	     -9.23269414	      4.45755081	      9.82493308	      9.72987549	    -16.39312114	     -7.42553691	     58.98901684	     82.54604485	      5.26194895	     -2.99565757	     -2.30565591	     15.69344741	     87.10739960
